<?xml version="1.0" encoding="UTF-8"?>
<svg width="26px" height="26px" viewBox="0 0 26 26" version="1.1" xmlns="http://www.w3.org/2000/svg" xmlns:xlink="http://www.w3.org/1999/xlink">
    <title>提示</title>
    <defs>
        <filter x="-15.4%" y="-15.4%" width="130.8%" height="130.8%" filterUnits="objectBoundingBox" id="filter-1">
            <feOffset dx="0" dy="2" in="SourceAlpha" result="shadowOffsetOuter1"></feOffset>
            <feColorMatrix values="0 0 0 0 0   0 0 0 0 0   0 0 0 0 0  0 0 0 0.5 0" type="matrix" in="shadowOffsetOuter1" result="shadowMatrixOuter1"></feColorMatrix>
            <feMerge>
                <feMergeNode in="shadowMatrixOuter1"></feMergeNode>
                <feMergeNode in="SourceGraphic"></feMergeNode>
            </feMerge>
        </filter>
    </defs>
    <g id="提示" stroke="none" stroke-width="1" fill="none" fill-rule="evenodd">
        <g id="编组" filter="url(#filter-1)">
            <rect id="矩形" x="0" y="0" width="26" height="26"></rect>
            <g id="提示" transform="translate(5.000000, 2.000000)" fill="#FFFFFF" fill-rule="nonzero">
                <path d="M3.87999999,13.8810878 C1.55199999,12.5738913 0,10.1937701 0,7.47503765 C0,3.34673794 3.58,0 8,0 C12.42,0 16,3.34673794 16,7.47503765 C16,10.1937701 14.446,12.5738914 12.12,13.8810878 C11.99,14.5504354 11.678,15.1567856 11.232,15.6607649 L4.768,15.6607649 C4.31711483,15.1551551 4.01007046,14.5411778 3.87799999,13.8810878 L3.87999999,13.8810878 Z M13.714,8.1857273 C13.7317295,5.06102254 11.1744138,2.51293008 8,2.49233544 C7.494,2.49233544 7.23800001,2.73054444 7.23800001,3.20302508 C7.23800001,3.32114526 7.494,3.55738558 8,3.55738558 C10.44,3.55738558 12.572,5.55164767 12.572,8.1857273 C12.572,8.30384747 12.828,8.54205646 13.332,8.54205646 C13.458,8.54205646 13.714,8.30384747 13.714,8.18769597 L13.714,8.1857273 Z M4.572,17.4384734 C4.572,17.0467082 4.91200001,16.7297524 5.33199999,16.7297524 L10.668,16.7297524 C11.088,16.7297524 11.428,17.0447395 11.428,17.4384734 C11.428,17.8322073 11.088,18.1511317 10.668,18.1511317 L5.33199999,18.1511317 C5.13538186,18.15642 4.94471435,18.0844399 4.80211311,17.951091 C4.65951187,17.817742 4.576711,17.6339968 4.572,17.4404421 L4.572,17.4384734 Z M11.072,19.2201192 C10.512,20.2733573 9.34599998,20.9997963 8,20.9997963 C6.71986048,21.0135646 5.53723216,20.328442 4.928,19.2201192 L11.072,19.2201192 Z" id="形状"></path>
            </g>
        </g>
    </g>
</svg>