<?xml version="1.0" encoding="UTF-8"?>
<svg width="26px" height="26px" viewBox="0 0 26 26" version="1.1" xmlns="http://www.w3.org/2000/svg" xmlns:xlink="http://www.w3.org/1999/xlink">
    <title>主页</title>
    <defs>
        <filter x="-15.4%" y="-15.4%" width="130.8%" height="130.8%" filterUnits="objectBoundingBox" id="filter-1">
            <feOffset dx="0" dy="2" in="SourceAlpha" result="shadowOffsetOuter1"></feOffset>
            <feColorMatrix values="0 0 0 0 0   0 0 0 0 0   0 0 0 0 0  0 0 0 0.5 0" type="matrix" in="shadowOffsetOuter1" result="shadowMatrixOuter1"></feColorMatrix>
            <feMerge>
                <feMergeNode in="shadowMatrixOuter1"></feMergeNode>
                <feMergeNode in="SourceGraphic"></feMergeNode>
            </feMerge>
        </filter>
    </defs>
    <g id="主页" stroke="none" stroke-width="1" fill="none" fill-rule="evenodd">
        <g id="编组" filter="url(#filter-1)">
            <rect id="矩形" x="0" y="0" width="26" height="26"></rect>
            <g id="icon－1_zhu-ye－mian" transform="translate(4.000000, 3.000000)" fill="#FFFFFF" fill-rule="nonzero">
                <path d="M18.6761268,8.45893635 L10.2321883,0.290072654 C9.81783546,-0.0966908846 9.18216454,-0.0966908846 8.76781165,0.290072654 L0.323873218,8.45893635 C0.0146546189,8.76199716 -0.0837927125,9.22564081 0.0748211197,9.63186223 C0.233434952,10.0380837 0.617548852,10.3060526 1.04655262,10.3097702 L1.89284827,10.3097702 L1.89284827,18.7499604 C1.89284827,19.4379667 2.29222373,20 2.78668858,20 L6.37155885,20 C6.86602372,20 7.26539919,19.4379667 7.26539917,18.7499604 L7.26539917,13.7207311 C7.26539917,13.0327248 7.66477463,12.4706915 8.15923951,12.4706915 L10.8407605,12.4706915 C11.3352254,12.4706915 11.7346008,13.0327248 11.7346008,13.7207311 L11.7346008,18.7499604 C11.7346008,19.4379667 12.1339763,20 12.6284411,20 L16.2133114,20 C16.7077763,20 17.1071518,19.4379667 17.1071517,18.7499604 L17.1071517,10.3097702 L17.9534474,10.3097702 C18.3824511,10.3060526 18.766565,10.0380837 18.9251789,9.63186223 C19.0837927,9.22564081 18.9853454,8.76199716 18.6761268,8.45893635 Z" id="路径"></path>
            </g>
        </g>
    </g>
</svg>