<?xml version="1.0" encoding="UTF-8"?>
<svg width="26px" height="26px" viewBox="0 0 26 26" version="1.1" xmlns="http://www.w3.org/2000/svg" xmlns:xlink="http://www.w3.org/1999/xlink">
    <title>音量</title>
    <defs>
        <filter x="-15.4%" y="-15.4%" width="130.8%" height="130.8%" filterUnits="objectBoundingBox" id="filter-1">
            <feOffset dx="0" dy="2" in="SourceAlpha" result="shadowOffsetOuter1"></feOffset>
            <feColorMatrix values="0 0 0 0 0   0 0 0 0 0   0 0 0 0 0  0 0 0 0.5 0" type="matrix" in="shadowOffsetOuter1" result="shadowMatrixOuter1"></feColorMatrix>
            <feMerge>
                <feMergeNode in="shadowMatrixOuter1"></feMergeNode>
                <feMergeNode in="SourceGraphic"></feMergeNode>
            </feMerge>
        </filter>
    </defs>
    <g id="音量" stroke="none" stroke-width="1" fill="none" fill-rule="evenodd">
        <g id="编组" filter="url(#filter-1)">
            <rect id="矩形" x="0" y="0" width="26" height="26"></rect>
            <g id="声音" transform="translate(3.000000, 4.000000)" fill="#FFFFFF" fill-rule="nonzero">
                <path d="M10,18 C6.91666666,18 4.66666666,14.9727273 3.91666666,13.8272727 L1.75,13.8272727 C0.75,13.8272727 0,13.0909091 0,12.1090909 L0,5.80909091 C0,4.90909091 0.75,4.09090909 1.75,4.09090909 L3.91666666,4.09090909 C4.66666666,2.94545455 6.91666666,0 10,0 C10.5,0 10.8333333,0.327272734 10.8333333,0.818181806 L10.8333333,17.1818182 C10.8333333,17.6727273 10.5,18 10,18 Z M13.75,13.8272727 C13.5,13.8272727 13.3333333,13.7454545 13.1666667,13.5818182 C12.8333333,13.2545454 12.9166667,12.7636364 13.25,12.4363636 C13.5,12.1909091 13.75,11.9454545 13.9166667,11.7 C14.5,10.9636364 14.75,9.98181818 14.75,9.08181819 C14.75,8.10000001 14.4166667,7.20000001 13.8333333,6.38181819 C13.6666667,6.13636364 13.4166667,5.8909091 13.1666667,5.72727272 C12.8333333,5.39999998 12.8333333,4.90909089 13.0833333,4.58181818 C13.3333334,4.25454546 13.9166667,4.25454544 14.25,4.49999999 C14.5833333,4.74545454 14.8333333,5.07272727 15.1666667,5.48181817 C15.9166667,6.54545454 16.3333333,7.77272727 16.3333333,9.16363636 C16.3333333,10.4727273 15.9166667,11.7 15.1666667,12.7636364 C14.9166667,13.0909091 14.5833333,13.4181818 14.25,13.7454546 C14.1666667,13.7454546 13.9166667,13.8272727 13.75,13.8272727 L13.75,13.8272727 Z" id="形状"></path>
                <path d="M14.75,17.4272727 C14.5,17.4272727 14.1666667,17.2636364 14,17.0181818 C13.75,16.6090909 13.9166667,16.1181818 14.25,15.8727273 C16.75,14.4 18.25,11.7818182 18.25,9 C18.25,6.21818181 16.8333333,3.68181818 14.3333333,2.12727272 C13.9166667,1.88181818 13.8333333,1.39090909 14.0833333,0.981818183 C14.3333333,0.57272728 14.8333333,0.490909091 15.25,0.736363637 C18.25,2.53636363 20,5.64545455 20,9 C20,12.3545455 18.1666667,15.5454545 15.1666667,17.3454546 C15.0833333,17.4272727 14.9166667,17.4272727 14.75,17.4272727 L14.75,17.4272727 Z" id="路径"></path>
            </g>
        </g>
    </g>
</svg>